<?xml version="1.0" encoding="UTF-8" standalone="no"?><svg xmlns="http://www.w3.org/2000/svg" xmlns:xlink="http://www.w3.org/1999/xlink" contentScriptType="application/ecmascript" contentStyleType="text/css" height="291px" preserveAspectRatio="none" style="width:399px;height:291px;" version="1.1" viewBox="0 0 399 291" width="399px" zoomAndPan="magnify"><defs><filter height="300%" id="fm8tw79kbkog2" width="300%" x="-1" y="-1"><feGaussianBlur result="blurOut" stdDeviation="2.0"/><feColorMatrix in="blurOut" result="blurOut2" type="matrix" values="0 0 0 0 0 0 0 0 0 0 0 0 0 0 0 0 0 0 .4 0"/><feOffset dx="4.0" dy="4.0" in="blurOut2" result="blurOut3"/><feBlend in="SourceGraphic" in2="blurOut3" mode="normal"/></filter></defs><g><line style="stroke:#A80036;stroke-width:1.0;stroke-dasharray:5.0,5.0;" x1="53" x2="53" y1="40.2969" y2="248.0938"/><line style="stroke:#A80036;stroke-width:1.0;stroke-dasharray:5.0,5.0;" x1="160" x2="160" y1="40.2969" y2="248.0938"/><line style="stroke:#A80036;stroke-width:1.0;stroke-dasharray:5.0,5.0;" x1="249.5" x2="249.5" y1="40.2969" y2="248.0938"/><line style="stroke:#A80036;stroke-width:1.0;stroke-dasharray:5.0,5.0;" x1="367.5" x2="367.5" y1="40.2969" y2="248.0938"/><rect fill="#FEFECE" filter="url(#fm8tw79kbkog2)" height="30.2969" style="stroke:#A80036;stroke-width:1.5;" width="93" x="5" y="5"/><text fill="#000000" font-family="sans-serif" font-size="14" lengthAdjust="spacing" textLength="79" x="12" y="24.9951">linglongdev</text><rect fill="#FEFECE" filter="url(#fm8tw79kbkog2)" height="30.2969" style="stroke:#A80036;stroke-width:1.5;" width="93" x="5" y="247.0938"/><text fill="#000000" font-family="sans-serif" font-size="14" lengthAdjust="spacing" textLength="79" x="12" y="267.0889">linglongdev</text><rect fill="#FEFECE" filter="url(#fm8tw79kbkog2)" height="30.2969" style="stroke:#A80036;stroke-width:1.5;" width="92" x="112" y="5"/><text fill="#000000" font-family="sans-serif" font-size="14" lengthAdjust="spacing" textLength="78" x="119" y="24.9951">user_home</text><rect fill="#FEFECE" filter="url(#fm8tw79kbkog2)" height="30.2969" style="stroke:#A80036;stroke-width:1.5;" width="92" x="112" y="247.0938"/><text fill="#000000" font-family="sans-serif" font-size="14" lengthAdjust="spacing" textLength="78" x="119" y="267.0889">user_home</text><rect fill="#FEFECE" filter="url(#fm8tw79kbkog2)" height="30.2969" style="stroke:#A80036;stroke-width:1.5;" width="45" x="225.5" y="5"/><text fill="#000000" font-family="sans-serif" font-size="14" lengthAdjust="spacing" textLength="31" x="232.5" y="24.9951">local</text><rect fill="#FEFECE" filter="url(#fm8tw79kbkog2)" height="30.2969" style="stroke:#A80036;stroke-width:1.5;" width="45" x="225.5" y="247.0938"/><text fill="#000000" font-family="sans-serif" font-size="14" lengthAdjust="spacing" textLength="31" x="232.5" y="267.0889">local</text><rect fill="#FEFECE" filter="url(#fm8tw79kbkog2)" height="30.2969" style="stroke:#A80036;stroke-width:1.5;" width="39" x="346.5" y="5"/><text fill="#000000" font-family="sans-serif" font-size="14" lengthAdjust="spacing" textLength="25" x="353.5" y="24.9951">osc</text><rect fill="#FEFECE" filter="url(#fm8tw79kbkog2)" height="30.2969" style="stroke:#A80036;stroke-width:1.5;" width="39" x="346.5" y="247.0938"/><text fill="#000000" font-family="sans-serif" font-size="14" lengthAdjust="spacing" textLength="25" x="353.5" y="267.0889">osc</text><polygon fill="#A80036" points="148,67.4297,158,71.4297,148,75.4297,152,71.4297" style="stroke:#A80036;stroke-width:1.0;"/><line style="stroke:#A80036;stroke-width:1.0;" x1="53.5" x2="154" y1="71.4297" y2="71.4297"/><text fill="#000000" font-family="sans-serif" font-size="13" lengthAdjust="spacing" textLength="57" x="60.5" y="66.3638">Fork 仓库</text><polygon fill="#A80036" points="238,96.5625,248,100.5625,238,104.5625,242,100.5625" style="stroke:#A80036;stroke-width:1.0;"/><line style="stroke:#A80036;stroke-width:1.0;" x1="160" x2="244" y1="100.5625" y2="100.5625"/><text fill="#000000" font-family="sans-serif" font-size="13" lengthAdjust="spacing" textLength="66" x="167" y="95.4966">Clone 仓库</text><polygon fill="#A80036" points="261,125.6953,251,129.6953,261,133.6953,257,129.6953" style="stroke:#A80036;stroke-width:1.0;"/><line style="stroke:#A80036;stroke-width:1.0;" x1="255" x2="367" y1="129.6953" y2="129.6953"/><text fill="#000000" font-family="sans-serif" font-size="13" lengthAdjust="spacing" textLength="39" x="267" y="124.6294">创建包</text><line style="stroke:#A80036;stroke-width:1.0;" x1="250" x2="292" y1="158.8281" y2="158.8281"/><line style="stroke:#A80036;stroke-width:1.0;" x1="292" x2="292" y1="158.8281" y2="171.8281"/><line style="stroke:#A80036;stroke-width:1.0;" x1="251" x2="292" y1="171.8281" y2="171.8281"/><polygon fill="#A80036" points="261,167.8281,251,171.8281,261,175.8281,257,171.8281" style="stroke:#A80036;stroke-width:1.0;"/><text fill="#000000" font-family="sans-serif" font-size="13" lengthAdjust="spacing" textLength="104" x="257" y="153.7622">添加_service文件</text><polygon fill="#A80036" points="171,196.9609,161,200.9609,171,204.9609,167,200.9609" style="stroke:#A80036;stroke-width:1.0;"/><line style="stroke:#A80036;stroke-width:1.0;" x1="165" x2="249" y1="200.9609" y2="200.9609"/><text fill="#000000" font-family="sans-serif" font-size="13" lengthAdjust="spacing" textLength="61" x="177" y="195.895">push 仓库</text><polygon fill="#A80036" points="64.5,226.0938,54.5,230.0938,64.5,234.0938,60.5,230.0938" style="stroke:#A80036;stroke-width:1.0;"/><line style="stroke:#A80036;stroke-width:1.0;" x1="58.5" x2="159" y1="230.0938" y2="230.0938"/><text fill="#000000" font-family="sans-serif" font-size="13" lengthAdjust="spacing" textLength="46" x="70.5" y="225.0278">创建 PR</text><!--MD5=[b8b2571d34efddcea47d7c3ac77503f5]
@startuml

linglongdev -> user_home: Fork 仓库
user_home -> local: Clone 仓库
osc -> local: 创建包
local -> local: 添加_service文件
local -> user_home: push 仓库
user_home -> linglongdev: 创建 PR

@enduml

PlantUML version 1.2021.00(Sun Jan 10 10:25:05 UTC 2021)
(GPL source distribution)
Java Runtime: OpenJDK Runtime Environment
JVM: OpenJDK 64-Bit Server VM
Default Encoding: UTF-8
Language: en
Country: null
--></g></svg>