<?xml version="1.0" encoding="UTF-8" standalone="no"?><svg xmlns="http://www.w3.org/2000/svg" xmlns:xlink="http://www.w3.org/1999/xlink" contentScriptType="application/ecmascript" contentStyleType="text/css" height="359px" preserveAspectRatio="none" style="width:443px;height:359px;" version="1.1" viewBox="0 0 443 359" width="443px" zoomAndPan="magnify"><defs><filter height="300%" id="f1vt4xoz3kmx4l" width="300%" x="-1" y="-1"><feGaussianBlur result="blurOut" stdDeviation="2.0"/><feColorMatrix in="blurOut" result="blurOut2" type="matrix" values="0 0 0 0 0 0 0 0 0 0 0 0 0 0 0 0 0 0 .4 0"/><feOffset dx="4.0" dy="4.0" in="blurOut2" result="blurOut3"/><feBlend in="SourceGraphic" in2="blurOut3" mode="normal"/></filter></defs><g><line style="stroke:#A80036;stroke-width:1.0;stroke-dasharray:5.0,5.0;" x1="53" x2="53" y1="40.2969" y2="316.2266"/><line style="stroke:#A80036;stroke-width:1.0;stroke-dasharray:5.0,5.0;" x1="183" x2="183" y1="40.2969" y2="316.2266"/><line style="stroke:#A80036;stroke-width:1.0;stroke-dasharray:5.0,5.0;" x1="328" x2="328" y1="40.2969" y2="316.2266"/><rect fill="#FEFECE" filter="url(#f1vt4xoz3kmx4l)" height="30.2969" style="stroke:#A80036;stroke-width:1.5;" width="93" x="5" y="5"/><text fill="#000000" font-family="sans-serif" font-size="14" lengthAdjust="spacing" textLength="79" x="12" y="24.9951">linglongdev</text><rect fill="#FEFECE" filter="url(#f1vt4xoz3kmx4l)" height="30.2969" style="stroke:#A80036;stroke-width:1.5;" width="93" x="5" y="315.2266"/><text fill="#000000" font-family="sans-serif" font-size="14" lengthAdjust="spacing" textLength="79" x="12" y="335.2217">linglongdev</text><rect fill="#FEFECE" filter="url(#f1vt4xoz3kmx4l)" height="30.2969" style="stroke:#A80036;stroke-width:1.5;" width="139" x="112" y="5"/><text fill="#000000" font-family="sans-serif" font-size="14" lengthAdjust="spacing" textLength="125" x="119" y="24.9951">build_deepin_com</text><rect fill="#FEFECE" filter="url(#f1vt4xoz3kmx4l)" height="30.2969" style="stroke:#A80036;stroke-width:1.5;" width="139" x="112" y="315.2266"/><text fill="#000000" font-family="sans-serif" font-size="14" lengthAdjust="spacing" textLength="125" x="119" y="335.2217">build_deepin_com</text><rect fill="#FEFECE" filter="url(#f1vt4xoz3kmx4l)" height="30.2969" style="stroke:#A80036;stroke-width:1.5;" width="117" x="268" y="5"/><text fill="#000000" font-family="sans-serif" font-size="14" lengthAdjust="spacing" textLength="103" x="275" y="24.9951">ci_deepin_com</text><rect fill="#FEFECE" filter="url(#f1vt4xoz3kmx4l)" height="30.2969" style="stroke:#A80036;stroke-width:1.5;" width="117" x="268" y="315.2266"/><text fill="#000000" font-family="sans-serif" font-size="14" lengthAdjust="spacing" textLength="103" x="275" y="335.2217">ci_deepin_com</text><line style="stroke:#A80036;stroke-width:1.0;" x1="53.5" x2="95.5" y1="71.4297" y2="71.4297"/><line style="stroke:#A80036;stroke-width:1.0;" x1="95.5" x2="95.5" y1="71.4297" y2="84.4297"/><line style="stroke:#A80036;stroke-width:1.0;" x1="54.5" x2="95.5" y1="84.4297" y2="84.4297"/><polygon fill="#A80036" points="64.5,80.4297,54.5,84.4297,64.5,88.4297,60.5,84.4297" style="stroke:#A80036;stroke-width:1.0;"/><text fill="#000000" font-family="sans-serif" font-size="13" lengthAdjust="spacing" textLength="46" x="60.5" y="66.3638">合并 PR</text><polygon fill="#A80036" points="171.5,109.5625,181.5,113.5625,171.5,117.5625,175.5,113.5625" style="stroke:#A80036;stroke-width:1.0;"/><line style="stroke:#A80036;stroke-width:1.0;" x1="53.5" x2="177.5" y1="113.5625" y2="113.5625"/><text fill="#000000" font-family="sans-serif" font-size="13" lengthAdjust="spacing" textLength="39" x="60.5" y="108.4966">提交包</text><line style="stroke:#A80036;stroke-width:1.0;" x1="183.5" x2="225.5" y1="142.6953" y2="142.6953"/><line style="stroke:#A80036;stroke-width:1.0;" x1="225.5" x2="225.5" y1="142.6953" y2="155.6953"/><line style="stroke:#A80036;stroke-width:1.0;" x1="184.5" x2="225.5" y1="155.6953" y2="155.6953"/><polygon fill="#A80036" points="194.5,151.6953,184.5,155.6953,194.5,159.6953,190.5,155.6953" style="stroke:#A80036;stroke-width:1.0;"/><text fill="#000000" font-family="sans-serif" font-size="13" lengthAdjust="spacing" textLength="39" x="190.5" y="137.6294">构建包</text><line style="stroke:#A80036;stroke-width:1.0;" x1="183.5" x2="225.5" y1="184.8281" y2="184.8281"/><line style="stroke:#A80036;stroke-width:1.0;" x1="225.5" x2="225.5" y1="184.8281" y2="197.8281"/><line style="stroke:#A80036;stroke-width:1.0;" x1="184.5" x2="225.5" y1="197.8281" y2="197.8281"/><polygon fill="#A80036" points="194.5,193.8281,184.5,197.8281,194.5,201.8281,190.5,197.8281" style="stroke:#A80036;stroke-width:1.0;"/><text fill="#000000" font-family="sans-serif" font-size="13" lengthAdjust="spacing" textLength="95" x="190.5" y="179.7622">发布debian仓库</text><polygon fill="#A80036" points="316.5,222.9609,326.5,226.9609,316.5,230.9609,320.5,226.9609" style="stroke:#A80036;stroke-width:1.0;"/><line style="stroke:#A80036;stroke-width:1.0;" x1="183.5" x2="322.5" y1="226.9609" y2="226.9609"/><text fill="#000000" font-family="sans-serif" font-size="13" lengthAdjust="spacing" textLength="121" x="190.5" y="221.895">通知debian仓库变动</text><polygon fill="#A80036" points="194.5,252.0938,184.5,256.0938,194.5,260.0938,190.5,256.0938" style="stroke:#A80036;stroke-width:1.0;"/><line style="stroke:#A80036;stroke-width:1.0;" x1="188.5" x2="327.5" y1="256.0938" y2="256.0938"/><text fill="#000000" font-family="sans-serif" font-size="13" lengthAdjust="spacing" textLength="52" x="200.5" y="251.0278">拉取变动</text><line style="stroke:#A80036;stroke-width:1.0;" x1="328.5" x2="370.5" y1="285.2266" y2="285.2266"/><line style="stroke:#A80036;stroke-width:1.0;" x1="370.5" x2="370.5" y1="285.2266" y2="298.2266"/><line style="stroke:#A80036;stroke-width:1.0;" x1="329.5" x2="370.5" y1="298.2266" y2="298.2266"/><polygon fill="#A80036" points="339.5,294.2266,329.5,298.2266,339.5,302.2266,335.5,298.2266" style="stroke:#A80036;stroke-width:1.0;"/><text fill="#000000" font-family="sans-serif" font-size="13" lengthAdjust="spacing" textLength="101" x="335.5" y="280.1606">转化linglong仓库</text><!--MD5=[3d31033667db53f49a63e320aacde6e0]
@startuml

linglongdev -> linglongdev: 合并 PR
linglongdev -> build_deepin_com: 提交包
build_deepin_com -> build_deepin_com: 构建包
build_deepin_com -> build_deepin_com: 发布debian仓库
build_deepin_com -> ci_deepin_com: 通知debian仓库变动
ci_deepin_com -> build_deepin_com: 拉取变动
ci_deepin_com -> ci_deepin_com: 转化linglong仓库

@enduml

PlantUML version 1.2021.00(Sun Jan 10 10:25:05 UTC 2021)
(GPL source distribution)
Java Runtime: OpenJDK Runtime Environment
JVM: OpenJDK 64-Bit Server VM
Default Encoding: UTF-8
Language: en
Country: null
--></g></svg>