<?xml version="1.0" encoding="UTF-8" standalone="no"?><svg xmlns="http://www.w3.org/2000/svg" xmlns:xlink="http://www.w3.org/1999/xlink" contentScriptType="application/ecmascript" contentStyleType="text/css" height="259px" preserveAspectRatio="none" style="width:448px;height:259px;" version="1.1" viewBox="0 0 448 259" width="448px" zoomAndPan="magnify"><defs><filter height="300%" id="f1o47ukolzbayj" width="300%" x="-1" y="-1"><feGaussianBlur result="blurOut" stdDeviation="2.0"/><feColorMatrix in="blurOut" result="blurOut2" type="matrix" values="0 0 0 0 0 0 0 0 0 0 0 0 0 0 0 0 0 0 .4 0"/><feOffset dx="4.0" dy="4.0" in="blurOut2" result="blurOut3"/><feBlend in="SourceGraphic" in2="blurOut3" mode="normal"/></filter></defs><g><ellipse cx="194.3016" cy="126.526" fill="#FEFECE" filter="url(#f1o47ukolzbayj)" rx="34.1191" ry="14.526" style="stroke:#A80036;stroke-width:1.5;"/><text fill="#000000" font-family="sans-serif" font-size="14" lengthAdjust="spacing" textLength="32" x="177.855" y="129.5381">repo</text><ellipse cx="255.0526" cy="20.5236" fill="#FEFECE" filter="url(#f1o47ukolzbayj)" rx="29.8701" ry="14.5236" style="stroke:#A80036;stroke-width:1.5;"/><text fill="#000000" font-family="sans-serif" font-size="14" lengthAdjust="spacing" textLength="26" x="242.0526" y="23.3703">app</text><ellipse cx="67.2744" cy="232.5236" fill="#FEFECE" filter="url(#f1o47ukolzbayj)" rx="22.0919" ry="14.5236" style="stroke:#A80036;stroke-width:1.5;"/><text fill="#000000" font-family="sans-serif" font-size="14" lengthAdjust="spacing" textLength="15" x="59.7744" y="235.3703">lib</text><ellipse cx="321.2976" cy="232.6874" fill="#FEFECE" filter="url(#f1o47ukolzbayj)" rx="49.6151" ry="14.6874" style="stroke:#A80036;stroke-width:1.5;"/><text fill="#000000" font-family="sans-serif" font-size="14" lengthAdjust="spacing" textLength="53" x="291.7976" y="236.4349">runtime</text><ellipse cx="134.2339" cy="20.5323" fill="#FEFECE" filter="url(#f1o47ukolzbayj)" rx="35.5514" ry="14.5323" style="stroke:#A80036;stroke-width:1.5;"/><text fill="#000000" font-family="sans-serif" font-size="14" lengthAdjust="spacing" textLength="34" x="116.3406" y="23.6955">base</text><!--MD5=[4ef4cd5265baeb24b9dd276a0c976907]
link lib to repo--><path d="M77.6692,219.3323 C88.4974,206.208 106.2899,185.9127 124.1825,171 C137.8978,159.5689 154.7473,148.7723 168.478,140.677 " fill="none" id="lib-to-repo" style="stroke:#A80036;stroke-width:1.0;"/><polygon fill="#A80036" points="173.006,138.0381,163.2161,139.1137,168.686,140.5556,167.2441,146.0256,173.006,138.0381" style="stroke:#A80036;stroke-width:1.0;"/><text fill="#000000" font-family="sans-serif" font-size="13" lengthAdjust="spacing" textLength="92" x="125.1825" y="184.0669">依赖all仓库构建</text><!--MD5=[1c2fb224739ce5bc3ef2a4614f2c0f79]
link repo to lib--><path d="M160.8843,130.1443 C115.1014,135.9193 36.4046,148.8504 19.1825,171 C6,187.9541 27.5622,207.4997 45.8857,219.9223 " fill="none" id="repo-to-lib" style="stroke:#A80036;stroke-width:1.0;"/><polygon fill="#A80036" points="50.4513,222.9212,45.1251,214.6368,46.2722,220.1761,40.7329,221.3233,50.4513,222.9212" style="stroke:#A80036;stroke-width:1.0;"/><text fill="#000000" font-family="sans-serif" font-size="13" lengthAdjust="spacing" textLength="79" x="20.1825" y="184.0669">all仓库的组件</text><!--MD5=[c681545e341026f8c18db598398470b1]
link app to repo--><path d="M246.9558,34.7956 C236.1321,53.604 217.0799,86.711 205.0709,107.5791 " fill="none" id="app-to-repo" style="stroke:#A80036;stroke-width:1.0;"/><polygon fill="#A80036" points="202.4737,112.0923,210.4296,106.2869,204.9676,107.7587,203.4958,102.2966,202.4737,112.0923" style="stroke:#A80036;stroke-width:1.0;"/><text fill="#000000" font-family="sans-serif" font-size="13" lengthAdjust="spacing" textLength="92" x="229.1825" y="78.0669">依赖all仓库构建</text><!--MD5=[4c6678d5c9b94e2cbd31c71571aa8373]
link runtime to repo--><path d="M333.2801,218.4268 C343.1344,205.1733 353.8186,185.2769 343.1825,171 C329.792,153.0259 271.0879,139.6472 231.4855,132.4643 " fill="none" id="runtime-to-repo" style="stroke:#A80036;stroke-width:1.0;"/><polygon fill="#A80036" points="226.2727,131.5344,234.4303,137.0529,231.195,132.4125,235.8353,129.1772,226.2727,131.5344" style="stroke:#A80036;stroke-width:1.0;"/><text fill="#000000" font-family="sans-serif" font-size="13" lengthAdjust="spacing" textLength="92" x="348.1825" y="184.0669">依赖all仓库构建</text><!--MD5=[530dce19ec807b2b4a36175dc36127e3]
link repo to runtime--><path d="M206.294,140.5241 C217.9045,153.5625 236.2654,173.1517 254.1825,188 C266.7266,198.3956 281.7532,208.5586 294.394,216.5418 " fill="none" id="repo-to-runtime" style="stroke:#A80036;stroke-width:1.0;"/><polygon fill="#A80036" points="298.9341,219.3807,293.4238,211.2176,294.6947,216.7298,289.1824,218.0007,298.9341,219.3807" style="stroke:#A80036;stroke-width:1.0;"/><text fill="#000000" font-family="sans-serif" font-size="13" lengthAdjust="spacing" textLength="79" x="255.1825" y="184.0669">all仓库的组件</text><!--MD5=[b41b5d301eab75677c6a35c46a951f8c]
reverse link base to repo--><path d="M128.3425,40.212 C125.7381,52.8446 124.5575,69.2094 131.1825,82 C139.3121,97.6955 155.8078,109.0362 169.8807,116.34 " fill="none" id="base-backto-repo" style="stroke:#A80036;stroke-width:1.0;"/><polygon fill="#A80036" points="129.5273,35.0479,123.6159,42.9254,128.4091,39.9213,131.4133,44.7145,129.5273,35.0479" style="stroke:#A80036;stroke-width:1.0;"/><text fill="#000000" font-family="sans-serif" font-size="13" lengthAdjust="spacing" textLength="79" x="132.1825" y="78.0669">all仓库的组件</text><!--MD5=[eb3bb8e6dfbaddeec209c51e9e36e085]
@startuml
(repo)
(app)
(lib)
(runtime)
(base)

lib - -> repo: 依赖all仓库构建
app - -> repo: 依赖all仓库构建
runtime - -> repo: 依赖all仓库构建
repo - -> lib: all仓库的组件
repo - -> runtime: all仓库的组件
repo -u-> base: all仓库的组件

@enduml

PlantUML version 1.2021.00(Sun Jan 10 10:25:05 UTC 2021)
(GPL source distribution)
Java Runtime: OpenJDK Runtime Environment
JVM: OpenJDK 64-Bit Server VM
Default Encoding: UTF-8
Language: en
Country: null
--></g></svg>