<?xml version="1.0" encoding="UTF-8" standalone="no"?><svg xmlns="http://www.w3.org/2000/svg" xmlns:xlink="http://www.w3.org/1999/xlink" contentScriptType="application/ecmascript" contentStyleType="text/css" height="366px" preserveAspectRatio="none" style="width:280px;height:366px;" version="1.1" viewBox="0 0 280 366" width="280px" zoomAndPan="magnify"><defs><filter height="300%" id="fzdfehmf2a61s" width="300%" x="-1" y="-1"><feGaussianBlur result="blurOut" stdDeviation="2.0"/><feColorMatrix in="blurOut" result="blurOut2" type="matrix" values="0 0 0 0 0 0 0 0 0 0 0 0 0 0 0 0 0 0 .4 0"/><feOffset dx="4.0" dy="4.0" in="blurOut2" result="blurOut3"/><feBlend in="SourceGraphic" in2="blurOut3" mode="normal"/></filter></defs><g><ellipse cx="142.8701" cy="20.5236" fill="#FEFECE" filter="url(#fzdfehmf2a61s)" rx="29.8701" ry="14.5236" style="stroke:#A80036;stroke-width:1.5;"/><text fill="#000000" font-family="sans-serif" font-size="14" lengthAdjust="spacing" textLength="26" x="129.8701" y="23.3703">app</text><ellipse cx="188.0919" cy="339.5236" fill="#FEFECE" filter="url(#fzdfehmf2a61s)" rx="22.0919" ry="14.5236" style="stroke:#A80036;stroke-width:1.5;"/><text fill="#000000" font-family="sans-serif" font-size="14" lengthAdjust="spacing" textLength="15" x="180.5919" y="342.3703">lib</text><ellipse cx="69.0514" cy="339.5323" fill="#FEFECE" filter="url(#fzdfehmf2a61s)" rx="35.5514" ry="14.5323" style="stroke:#A80036;stroke-width:1.5;"/><text fill="#000000" font-family="sans-serif" font-size="14" lengthAdjust="spacing" textLength="34" x="51.1581" y="342.6955">base</text><ellipse cx="69.0625" cy="233.0125" fill="#FEFECE" filter="url(#fzdfehmf2a61s)" rx="63.0625" ry="15.0125" style="stroke:#A80036;stroke-width:1.5;"/><text fill="#000000" font-family="sans-serif" font-size="14" lengthAdjust="spacing" textLength="73" x="29.5625" y="236.7601">repo_base</text><ellipse cx="217.8615" cy="233.1946" fill="#FEFECE" filter="url(#fzdfehmf2a61s)" rx="50.3615" ry="14.6946" style="stroke:#A80036;stroke-width:1.5;"/><text fill="#000000" font-family="sans-serif" font-size="14" lengthAdjust="spacing" textLength="54" x="187.8615" y="236.9422">repo_lib</text><ellipse cx="143.1151" cy="126.6874" fill="#FEFECE" filter="url(#fzdfehmf2a61s)" rx="49.6151" ry="14.6874" style="stroke:#A80036;stroke-width:1.5;"/><text fill="#000000" font-family="sans-serif" font-size="14" lengthAdjust="spacing" textLength="53" x="113.6151" y="130.4349">repo_all</text><!--MD5=[9420c82ea71805e65c21a1c4cd39e6ad]
link repo_base to base--><path d="M69,248.2589 C69,267.0549 69,299.0281 69,319.6997 " fill="none" id="repo_base-to-base" style="stroke:#A80036;stroke-width:1.0;"/><polygon fill="#A80036" points="69,324.9532,73,315.9532,69,319.9532,65,315.9532,69,324.9532" style="stroke:#A80036;stroke-width:1.0;"/><text fill="#000000" font-family="sans-serif" font-size="13" lengthAdjust="spacing" textLength="26" x="70" y="291.0669">上游</text><!--MD5=[d9efeed8ed7601e678ee81134c3d5608]
link repo_lib to lib--><path d="M213.8286,247.8084 C208.5151,266.6713 199.3199,299.3142 193.455,320.1347 " fill="none" id="repo_lib-to-lib" style="stroke:#A80036;stroke-width:1.0;"/><polygon fill="#A80036" points="192.0401,325.1577,198.3305,317.5794,193.3958,320.345,190.6302,315.4103,192.0401,325.1577" style="stroke:#A80036;stroke-width:1.0;"/><text fill="#000000" font-family="sans-serif" font-size="13" lengthAdjust="spacing" textLength="26" x="205" y="291.0669">上游</text><!--MD5=[a4ecb4c4fb59ed5eb1cf48a2fafb8cfd]
link repo_all to repo_base--><path d="M133.02,140.8631 C119.9082,159.7335 96.8423,192.9297 82.2706,213.9012 " fill="none" id="repo_all-to-repo_base" style="stroke:#A80036;stroke-width:1.0;"/><polygon fill="#A80036" points="79.2967,218.1811,87.7171,213.0726,82.1498,214.075,81.1474,208.5077,79.2967,218.1811" style="stroke:#A80036;stroke-width:1.0;"/><text fill="#000000" font-family="sans-serif" font-size="13" lengthAdjust="spacing" textLength="26" x="112" y="184.0669">聚合</text><!--MD5=[ebf92c0f39ad8272730e491a796ffb63]
link repo_all to repo_lib--><path d="M153.1148,140.8631 C166.4785,159.8395 190.0445,193.3031 204.7982,214.2534 " fill="none" id="repo_all-to-repo_lib" style="stroke:#A80036;stroke-width:1.0;"/><polygon fill="#A80036" points="207.8059,218.5244,205.8945,208.8628,204.9271,214.4363,199.3536,213.4689,207.8059,218.5244" style="stroke:#A80036;stroke-width:1.0;"/><text fill="#000000" font-family="sans-serif" font-size="13" lengthAdjust="spacing" textLength="26" x="185" y="184.0669">聚合</text><!--MD5=[111e2a5dd5b20a11a6f70dc393d29cdd]
reverse link repo_base to lib--><path d="M89.3327,251.1969 C113.8089,273.1021 154.1965,309.2473 174.8888,327.7661 " fill="none" id="repo_base-backto-lib" style="stroke:#A80036;stroke-width:1.0;"/><polygon fill="#A80036" points="85.5464,247.8084,89.5854,256.791,89.2722,251.1428,94.9204,250.8297,85.5464,247.8084" style="stroke:#A80036;stroke-width:1.0;"/><text fill="#000000" font-family="sans-serif" font-size="13" lengthAdjust="spacing" textLength="26" x="137" y="291.0669">依赖</text><!--MD5=[3e294e696db9281e7cfab3d4bd4efd66]
link app to repo_all--><path d="M143,35.2388 C143,53.9083 143,86.1403 143,106.8772 " fill="none" id="app-to-repo_all" style="stroke:#A80036;stroke-width:1.0;"/><polygon fill="#A80036" points="143,111.8863,147,102.8863,143,106.8863,139,102.8863,143,111.8863" style="stroke:#A80036;stroke-width:1.0;"/><text fill="#000000" font-family="sans-serif" font-size="13" lengthAdjust="spacing" textLength="26" x="144" y="78.0669">依赖</text><!--MD5=[847cbf5647724ee0da9aafc4fc629eda]
@startuml
(app)
(lib)
(base)
(repo_base)
(repo_lib)
(repo_all)

repo_base - -> base: 上游
repo_lib - -> lib: 上游
repo_all - -> repo_base: 聚合
repo_all - -> repo_lib: 聚合
lib -u-> repo_base: 依赖
app - -> repo_all: 依赖

@enduml

PlantUML version 1.2021.00(Sun Jan 10 10:25:05 UTC 2021)
(GPL source distribution)
Java Runtime: OpenJDK Runtime Environment
JVM: OpenJDK 64-Bit Server VM
Default Encoding: UTF-8
Language: en
Country: null
--></g></svg>